<svg xmlns="http://www.w3.org/2000/svg" id="Layer_1" version="1.1" viewBox="0 0 567.8 217.4"><defs><style>.st0{fill:#ffffff}.st1{fill:#08c7bf}</style></defs><path d="M231.2 150.2h-21.9v11.7h19.9v15.4h-19.9v27.4h-18.2v-69.9h40v15.4ZM257.3 134.8v69.9h-18.2v-69.9h18.2ZM295.4 150.2v54.5h-18.2v-54.5h-14.9v-15.4h48v15.4h-14.9ZM355.5 150.2h-21.9v11.7h19.9v15.4h-19.9v27.4h-18.2v-69.9h40v15.4ZM403.3 192.5h-25.9l-4.2 12.1h-19.4l26.6-69.9h19.8l26.6 69.9h-19.4l-4.2-12.1Zm-4.8-13.8-8.2-23.3-8.2 23.3h16.3ZM431.8 204.7v-69.9H450l33.5 42.7v-42.7h18.1v69.9h-18.1L450 162v42.7h-18.2ZM551.6 152.7c-2-1.6-4-2.8-5.9-3.6-2-.8-3.9-1.2-5.7-1.2s-4.3.6-5.7 1.7c-1.5 1.1-2.2 2.6-2.2 4.4s.4 2.3 1.1 3.1c.7.8 1.7 1.5 2.9 2.1 1.2.6 2.6 1.1 4.1 1.5s3 .9 4.5 1.4c5.9 2 10.3 4.6 13 7.9 2.7 3.3 4.1 7.6 4.1 12.9s-.6 6.8-1.8 9.7-3 5.4-5.3 7.5-5.2 3.7-8.5 4.8c-3.4 1.1-7.2 1.7-11.4 1.7-8.8 0-17-2.6-24.6-7.9l7.8-14.6c2.7 2.4 5.4 4.2 8.1 5.4 2.7 1.2 5.3 1.8 7.9 1.8s5.2-.7 6.6-2c1.5-1.4 2.2-2.9 2.2-4.6s-.2-2-.6-2.7c-.4-.8-1-1.5-1.9-2.1-.9-.6-2-1.3-3.4-1.8-1.4-.6-3.1-1.2-5.1-1.9-2.3-.7-4.6-1.6-6.9-2.5s-4.3-2.1-6-3.6-3.2-3.3-4.3-5.6c-1.1-2.3-1.6-5.1-1.6-8.6s.6-6.6 1.7-9.4 2.7-5.2 4.8-7.2 4.6-3.6 7.6-4.7 6.3-1.7 10.1-1.7 7.1.5 10.8 1.4c3.8 1 7.4 2.4 10.8 4.2l-7.2 14.2Z" class="st0"/><path d="M187.4 58.8H71c-1.5 0-2.8.8-3.6 2.1L39.2 110c-1.6 2.8-5.6 2.7-7.1 0L6 63.1c-.7-1.2-.7-2.8 0-4L35.7 6c.7-1.3 2.1-2.1 3.6-2.1h175.8c3.2 0 5.1 3.5 3.5 6.2l-27.7 46.8c-.7 1.2-2.1 2-3.5 2Z" class="st1"/><path d="M163.8 128.8h-51.4c-1.5 0-2.8.8-3.6 2.1l-45.1 77.8c-1.6 2.8-5.6 2.7-7.1 0l-26.2-46.8c-.7-1.2-.7-2.8 0-4L77 76c.7-1.3 2.1-2.1 3.6-2.1h110.9c3.2 0 5.1 3.5 3.5 6.2l-27.7 46.8c-.7 1.2-2.1 2-3.5 2Z" class="st1"/></svg>